<svg width="106" height="34" viewBox="0 0 106 34" fill="none" xmlns="http://www.w3.org/2000/svg">
<path d="M19.92 3.94L12.63 18.04V25H7.5V18.04L0.21 3.94H6.03L10.11 12.76L14.16 3.94H19.92ZM29.607 25.24C27.967 25.24 26.487 24.89 25.167 24.19C23.867 23.49 22.837 22.49 22.077 21.19C21.337 19.89 20.967 18.37 20.967 16.63C20.967 14.91 21.347 13.4 22.107 12.1C22.867 10.78 23.907 9.77 25.227 9.07C26.547 8.37 28.027 8.02 29.667 8.02C31.307 8.02 32.787 8.37 34.107 9.07C35.427 9.77 36.467 10.78 37.227 12.1C37.987 13.4 38.367 14.91 38.367 16.63C38.367 18.35 37.977 19.87 37.197 21.19C36.437 22.49 35.387 23.49 34.047 24.19C32.727 24.89 31.247 25.24 29.607 25.24ZM29.607 20.8C30.587 20.8 31.417 20.44 32.097 19.72C32.797 19 33.147 17.97 33.147 16.63C33.147 15.29 32.807 14.26 32.127 13.54C31.467 12.82 30.647 12.46 29.667 12.46C28.667 12.46 27.837 12.82 27.177 13.54C26.517 14.24 26.187 15.27 26.187 16.63C26.187 17.97 26.507 19 27.147 19.72C27.807 20.44 28.627 20.8 29.607 20.8ZM47.4485 8.02C48.6285 8.02 49.6585 8.26 50.5385 8.74C51.4385 9.22 52.1285 9.85 52.6085 10.63V8.26H57.7385V24.97C57.7385 26.51 57.4285 27.9 56.8085 29.14C56.2085 30.4 55.2785 31.4 54.0185 32.14C52.7785 32.88 51.2285 33.25 49.3685 33.25C46.8885 33.25 44.8785 32.66 43.3385 31.48C41.7985 30.32 40.9185 28.74 40.6985 26.74H45.7685C45.9285 27.38 46.3085 27.88 46.9085 28.24C47.5085 28.62 48.2485 28.81 49.1285 28.81C50.1885 28.81 51.0285 28.5 51.6485 27.88C52.2885 27.28 52.6085 26.31 52.6085 24.97V22.6C52.1085 23.38 51.4185 24.02 50.5385 24.52C49.6585 25 48.6285 25.24 47.4485 25.24C46.0685 25.24 44.8185 24.89 43.6985 24.19C42.5785 23.47 41.6885 22.46 41.0285 21.16C40.3885 19.84 40.0685 18.32 40.0685 16.6C40.0685 14.88 40.3885 13.37 41.0285 12.07C41.6885 10.77 42.5785 9.77 43.6985 9.07C44.8185 8.37 46.0685 8.02 47.4485 8.02ZM52.6085 16.63C52.6085 15.35 52.2485 14.34 51.5285 13.6C50.8285 12.86 49.9685 12.49 48.9485 12.49C47.9285 12.49 47.0585 12.86 46.3385 13.6C45.6385 14.32 45.2885 15.32 45.2885 16.6C45.2885 17.88 45.6385 18.9 46.3385 19.66C47.0585 20.4 47.9285 20.77 48.9485 20.77C49.9685 20.77 50.8285 20.4 51.5285 19.66C52.2485 18.92 52.6085 17.91 52.6085 16.63ZM64.0298 6.52C63.1298 6.52 62.3898 6.26 61.8098 5.74C61.2498 5.2 60.9698 4.54 60.9698 3.76C60.9698 2.96 61.2498 2.3 61.8098 1.78C62.3898 1.24 63.1298 0.969998 64.0298 0.969998C64.9098 0.969998 65.6298 1.24 66.1898 1.78C66.7698 2.3 67.0598 2.96 67.0598 3.76C67.0598 4.54 66.7698 5.2 66.1898 5.74C65.6298 6.26 64.9098 6.52 64.0298 6.52ZM66.5798 8.26V25H61.4498V8.26H66.5798ZM78.6975 12.52H75.9375V25H70.8075V12.52H68.9475V8.26H70.8075V7.78C70.8075 5.72 71.3975 4.16 72.5775 3.1C73.7575 2.02 75.4875 1.48 77.7675 1.48C78.1475 1.48 78.4275 1.49 78.6075 1.51V5.86C77.6275 5.8 76.9375 5.94 76.5375 6.28C76.1375 6.62 75.9375 7.23 75.9375 8.11V8.26H78.6975V12.52ZM98.208 8.26L87.708 32.95H82.188L86.028 24.43L79.218 8.26H84.948L88.818 18.73L92.658 8.26H98.208ZM102.463 25.24C101.563 25.24 100.823 24.98 100.243 24.46C99.6831 23.92 99.4031 23.26 99.4031 22.48C99.4031 21.68 99.6831 21.01 100.243 20.47C100.823 19.93 101.563 19.66 102.463 19.66C103.343 19.66 104.063 19.93 104.623 20.47C105.203 21.01 105.493 21.68 105.493 22.48C105.493 23.26 105.203 23.92 104.623 24.46C104.063 24.98 103.343 25.24 102.463 25.24Z" fill="#FF6F59"/>
</svg>
