<svg width="132" height="96" viewBox="0 0 132 96" fill="none" xmlns="http://www.w3.org/2000/svg">
<path d="M35.4 96C15.4 96 0.200001 81.8 0.200001 56C0.200001 35.4 11.6 17.8 32.2 7.59999C42.4 2.59999 53.4 -1.00136e-05 64.6 -1.00136e-05L68.6 5.59999C58.4 5.59999 37.6 11.4 27.8 22.8C22.8 28.6 20.2 33.4 20.2 37.2C22.4 34.4 30.8 31.6 39.4 31.6C50 31.6 58.2 36 63.8 44.8C69.8 18.2 96.2 -1.00136e-05 127 -1.00136e-05L131 5.59999C120.8 5.59999 100 11.4 90.2 22.8C85.2 28.6 82.6 33.4 82.6 37.2C84.8 34.4 93.2 31.6 101.8 31.6C119.2 31.6 131.4 45.6 131.4 62.8C131.4 82 118.2 96 97.8 96C83.8 96 72 88.6 66.6 76.4C61.6 88.6 50.6 96 35.4 96Z" fill="#DEDEDE"/>
</svg>
